<svg xmlns="http://www.w3.org/2000/svg" width="512" height="512" viewBox="0 0 512 512">
  <defs>
    <linearGradient id="bg" x1="0" y1="0" x2="1" y2="1">
      <stop offset="0" stop-color="#f7efd9"/>
      <stop offset="1" stop-color="#ece0c2"/>
    </linearGradient>
    <linearGradient id="pot" x1="0" y1="0" x2="0" y2="1">
      <stop offset="0" stop-color="#c85f3e"/>
      <stop offset="1" stop-color="#a8482b"/>
    </linearGradient>
  </defs>
  <rect width="512" height="512" rx="112" fill="url(#bg)"/>

  <!-- 새싹 (초록) -->
  <g fill="#5fa44a">
    <rect x="248" y="206" width="16" height="108" rx="8"/>
    <path d="M256 252 C 208 252 178 222 170 172 C 220 172 256 204 256 252 Z"/>
    <path d="M256 226 C 304 226 334 196 342 146 C 292 146 256 178 256 226 Z"/>
  </g>

  <!-- 화분 (벽돌색) -->
  <g fill="url(#pot)">
    <rect x="172" y="302" width="168" height="34" rx="10"/>
    <path d="M186 344 L326 344 L308 432 Q306 444 294 444 L218 444 Q206 444 204 432 Z"/>
  </g>
</svg>
